<svg width="67" height="20" viewBox="0 0 67 20" fill="none" xmlns="http://www.w3.org/2000/svg">
<rect x="0.5" y="0.5" width="66" height="19" rx="7.5" stroke="black"/>
<path d="M62.7897 10.7981C62.832 10.8642 62.8932 10.9155 62.9637 10.949C63.2361 11.0796 63.4661 11.2846 63.627 11.5404C63.788 11.7961 63.8733 12.0922 63.8732 12.3943V13.3803C63.8732 13.4783 63.9121 13.5724 63.9815 13.6417C64.0508 13.711 64.1448 13.75 64.2429 13.75C64.3409 13.75 64.435 13.711 64.5043 13.6417C64.5737 13.5724 64.6126 13.4783 64.6126 13.3803V12.3943C64.6126 11.7733 64.3659 11.1777 63.9268 10.7386C63.4877 10.2995 62.8921 10.0528 62.2711 10.0528C62.2173 10.0528 62.1932 10.1218 62.2336 10.1568C62.4487 10.3429 62.6359 10.5589 62.7897 10.7981Z" fill="black"/>
<path fill-rule="evenodd" clip-rule="evenodd" d="M57.3415 10.7922C56.9166 10.7922 56.5091 10.961 56.2087 11.2615C55.9082 11.5619 55.7394 11.9694 55.7394 12.3943V13.3803C55.7394 13.4783 55.7005 13.5724 55.6311 13.6417C55.5618 13.711 55.4678 13.75 55.3697 13.75C55.2717 13.75 55.1776 13.711 55.1083 13.6417C55.039 13.5724 55 13.4783 55 13.3803V12.3943C55 11.7733 55.2467 11.1777 55.6858 10.7386C56.1249 10.2995 56.7205 10.0528 57.3415 10.0528H60.2993C60.9203 10.0528 61.5159 10.2995 61.955 10.7386C62.3941 11.1777 62.6408 11.7733 62.6408 12.3943V13.3803C62.6408 13.4783 62.6019 13.5724 62.5326 13.6417C62.4632 13.711 62.3692 13.75 62.2711 13.75C62.1731 13.75 62.079 13.711 62.0097 13.6417C61.9404 13.5724 61.9014 13.4783 61.9014 13.3803V12.3943C61.9014 11.9694 61.7326 11.5619 61.4322 11.2615C61.1317 10.961 60.7242 10.7922 60.2993 10.7922H57.3415Z" fill="black"/>
<path d="M61.221 8.23232C61.2654 8.14901 61.3344 8.08246 61.4162 8.03514C61.6018 7.92655 61.7558 7.77127 61.8628 7.58472C61.9698 7.39818 62.0261 7.18688 62.0261 6.97183C62.0261 6.75678 61.9698 6.54548 61.8628 6.35894C61.7558 6.1724 61.6018 6.01711 61.4162 5.90852C61.3341 5.86219 61.2665 5.79392 61.221 5.71134C61.099 5.47945 60.9441 5.26642 60.7611 5.07887C60.733 5.0493 60.7512 5 60.7921 5C61.3151 5 61.8166 5.20775 62.1864 5.57754C62.5562 5.94733 62.764 6.44887 62.764 6.97183C62.764 7.49479 62.5562 7.99634 62.1864 8.36613C61.8166 8.73592 61.3151 8.94366 60.7921 8.94366C60.7512 8.94366 60.733 8.89437 60.7611 8.86479C60.9435 8.67845 61.0988 8.46549 61.221 8.23232Z" fill="black"/>
<path fill-rule="evenodd" clip-rule="evenodd" d="M58.8205 8.20423C59.1473 8.20423 59.4608 8.07438 59.6919 7.84327C59.923 7.61215 60.0529 7.29868 60.0529 6.97183C60.0529 6.64498 59.923 6.33152 59.6919 6.1004C59.4608 5.86928 59.1473 5.73944 58.8205 5.73944C58.4936 5.73944 58.1801 5.86928 57.949 6.1004C57.7179 6.33152 57.5881 6.64498 57.5881 6.97183C57.5881 7.29868 57.7179 7.61215 57.949 7.84327C58.1801 8.07438 58.4936 8.20423 58.8205 8.20423ZM58.8205 8.94366C59.3434 8.94366 59.845 8.73592 60.2148 8.36613C60.5845 7.99634 60.7923 7.49479 60.7923 6.97183C60.7923 6.44887 60.5845 5.94733 60.2148 5.57754C59.845 5.20775 59.3434 5 58.8205 5C58.2975 5 57.796 5.20775 57.4262 5.57754C57.0564 5.94733 56.8486 6.44887 56.8486 6.97183C56.8486 7.49479 57.0564 7.99634 57.4262 8.36613C57.796 8.73592 58.2975 8.94366 58.8205 8.94366Z" fill="black"/>
<rect x="6" y="4" width="12" height="12" rx="6" fill="#FF6264"/>
<g clip-path="url(#clip0_109_9)">
<path d="M12 17C8.15 17 5 13.85 5 10C5 6.15 8.15 3 12 3C15.85 3 19 6.15 19 10C19 13.85 15.85 17 12 17ZM12 4.16667C8.79167 4.16667 6.16667 6.79167 6.16667 10C6.16667 13.2083 8.79167 15.8333 12 15.8333C15.2083 15.8333 17.8333 13.2083 17.8333 10C17.8333 6.79167 15.2083 4.16667 12 4.16667Z" fill="black"/>
<path d="M9.66659 12.9166C9.49159 12.9166 9.37492 12.8583 9.25825 12.7416C9.02492 12.5083 9.02492 12.1583 9.25825 11.925L13.9249 7.25831C14.1583 7.02498 14.5083 7.02498 14.7416 7.25831C14.9749 7.49165 14.9749 7.84165 14.7416 8.07498L10.0749 12.7416C9.95825 12.8583 9.84159 12.9166 9.66659 12.9166Z" fill="black"/>
<path d="M14.3333 12.9166C14.1583 12.9166 14.0416 12.8583 13.9249 12.7416L9.25825 8.07498C9.02492 7.84165 9.02492 7.49165 9.25825 7.25831C9.49159 7.02498 9.84159 7.02498 10.0749 7.25831L14.7416 11.925C14.9749 12.1583 14.9749 12.5083 14.7416 12.7416C14.6249 12.8583 14.5083 12.9166 14.3333 12.9166Z" fill="black"/>
</g>
<defs>
<clipPath id="clip0_109_9">
<rect width="14" height="14" fill="white" transform="translate(5 3)"/>
</clipPath>
</defs>
</svg>
