<svg width="36" height="36" viewBox="0 0 36 36" fill="none" xmlns="http://www.w3.org/2000/svg">
<path d="M6.59964 13.1993C10.2445 13.1993 13.1993 10.2445 13.1993 6.59964C13.1993 2.95476 10.2445 0 6.59964 0C2.95476 0 0 2.95476 0 6.59964C0 10.2445 2.95476 13.1993 6.59964 13.1993Z" fill="#C7E755"/>
<path d="M5.15972 8.03956C3.77979 6.59964 1.8599 5.93967 0 6.05967V6.77963C1.67991 6.65963 3.35982 7.2596 4.61975 8.57953C5.87968 9.83946 6.47964 11.5794 6.41965 13.1993H7.13961C7.2596 11.3394 6.59964 9.41948 5.15972 8.03956ZM13.1993 6.41965C11.5194 6.47964 9.83946 5.93967 8.57953 4.61975C7.3196 3.35982 6.71963 1.61991 6.77963 0H6.05967C5.99967 1.8599 6.65963 3.7198 8.03956 5.15972C9.47948 6.59964 11.3394 7.2596 13.1993 7.13961V6.41965Z" fill="white"/>
<path d="M30.4782 19.6789L31.0782 19.0789L29.6982 17.699L32.0981 15.2992L32.9981 16.1991L33.598 15.5991L32.6981 14.6992L34.978 12.4193L34.378 11.8193L32.0981 14.0992L30.1782 12.1793L32.5781 9.77946L34.438 11.6394L35.038 11.0394L33.1781 9.17949L34.678 7.67957L34.078 7.0796L32.5781 8.57952L30.7182 6.59963L32.8181 4.49975L32.2181 3.89978L30.1182 5.99966L28.1983 4.07977L29.6982 2.57985L29.0983 1.97988L27.5984 3.4798L25.7385 1.6199L25.1385 2.21987L26.9984 4.07977L24.5985 6.47964L22.6786 4.55974L24.9585 2.27987L24.3585 1.6799L22.0787 3.95978L21.1787 3.05982L20.5788 3.65979L21.4787 4.55974L19.0788 6.95961L17.6989 5.57969L17.0989 6.17965L18.4789 7.55958L16.079 9.95945L15.179 9.0595L14.5791 9.65946L15.479 10.5594L13.1992 12.8393L13.7991 13.4393L16.079 11.1594L17.9989 13.0793L15.599 15.4791L13.7391 13.6192L13.1392 14.2192L14.9991 16.0791L13.4991 17.579L14.0991 18.179L15.599 16.6791L17.5189 18.599L15.419 20.6989L16.019 21.2988L18.1189 19.1989L20.0388 21.1188L18.5389 22.6188L19.1388 23.2187L20.6387 21.7188L22.4986 23.5787L23.0986 22.9787L21.2387 21.1188L23.6386 18.719L25.5585 20.6389L23.2786 22.9187L23.8786 23.5187L26.0984 21.2388L26.9984 22.1388L27.5984 21.5388L26.6984 20.6389L29.0983 18.239L30.4782 19.6789ZM31.4981 14.6992L29.0983 17.0991L27.1784 15.1792L29.5783 12.7793L31.4981 14.6992ZM23.5786 17.579L21.6587 15.6591L24.0586 13.2593L25.9785 15.1792L23.5786 17.579ZM21.5387 10.7394L23.4586 12.6593L21.0587 15.0592L19.1388 13.1393L21.5387 10.7394ZM24.5385 7.73957L26.4584 9.65946L24.0586 12.0593L22.1387 10.1394L24.5385 7.73957ZM24.6585 12.6593L27.0584 10.2594L28.9783 12.1793L26.5784 14.5792L24.6585 12.6593ZM31.9781 9.17949L29.5783 11.5794L27.6584 9.65946L30.0582 7.25959L31.9781 9.17949ZM27.5384 4.73973L29.4583 6.65963L27.0584 9.0595L25.1985 7.0796L27.5384 4.73973ZM22.0187 5.21971L23.9386 7.1396L21.5387 9.53947L19.6188 7.61957L22.0187 5.21971ZM16.619 10.6194L19.0188 8.21954L20.9387 10.1394L18.5389 12.5393L16.619 10.6194ZM16.139 16.1391L18.5389 13.7392L20.4588 15.6591L18.0589 18.059L16.139 16.1391ZM20.5188 20.5789L18.5989 18.659L20.9987 16.2591L22.9186 18.179L20.5188 20.5789ZM26.0984 20.0989L24.1786 18.179L26.5784 15.7791L28.4983 17.699L26.0984 20.0989Z" fill="#D0D0D0"/>
<path d="M33.4181 3.29983C29.3383 -0.779951 21.7787 0.060003 16.619 5.21972C11.4593 10.3794 10.6193 17.879 14.6991 22.0188C18.8389 26.0986 26.3384 25.2586 31.4982 20.0989C36.6579 14.9392 37.4978 7.4396 33.4181 3.29983ZM16.199 20.5189C12.7192 17.0391 13.4392 10.7394 17.8189 6.35966C22.1987 1.9799 28.4983 1.25994 31.9781 4.73975C35.4579 8.21956 34.738 14.5192 30.3582 18.899C25.9785 23.2787 19.6188 23.9987 16.199 20.5189Z" fill="#FF717F"/>
<path d="M21.6589 24.5386C22.0789 24.5386 18.1791 23.1587 18.1791 23.1587C18.1791 23.1587 13.2593 25.3786 12.2994 24.4187C11.3394 23.4587 13.5593 18.539 13.5593 18.539C13.5593 18.539 12.1794 14.6392 12.1194 15.0592C11.8794 18.959 11.2794 22.7987 9.41955 24.9586C9.17956 25.2586 8.81958 25.5586 8.81958 25.5586L9.95952 26.6985L11.0995 27.8385C11.0995 27.8385 11.3994 27.4785 11.6994 27.2385C13.9193 25.4386 17.7591 24.7786 21.6589 24.5386Z" fill="#FF717F"/>
<path d="M0.917725 32.8308L9.10488 24.643L12.0327 27.5703L3.84376 35.758L0.917725 32.8308Z" fill="#4D4F59"/>
<path d="M4.79983 28.9184L6.83972 32.6982L8.09965 31.4383L6.05976 27.5985L4.79983 28.9184ZM2.21997 31.4983L4.25986 35.3381L5.51979 34.0181L3.4799 30.2383L2.21997 31.4983Z" fill="#4D4F59"/>
<path d="M0.899902 32.8182L3.77974 35.758L4.25972 35.3381L2.21983 31.4983L0.899902 32.8182ZM3.47976 30.2384L5.51965 34.0181L6.83958 32.6982L4.79969 28.9184L3.47976 30.2384ZM9.11945 24.5987L8.69947 25.0186L10.6794 28.8584L11.9993 27.5385L9.11945 24.5987Z" fill="#5F606C"/>
<path d="M7.37964 26.3386L9.41953 30.1184L10.6795 28.8584L8.69957 25.0186L7.37964 26.3386Z" fill="#4D4F59"/>
<path d="M6.05981 27.5985L8.0997 31.4383L9.41963 30.1184L7.37974 26.3386L6.05981 27.5985Z" fill="#5F606C"/>
<path d="M0.633545 32.556L1.56709 31.6231L5.00311 35.0597L4.06956 35.9926L0.633545 32.556ZM7.90155 25.3L8.8351 24.3665L12.2705 27.8043L11.337 28.7372L7.90155 25.3Z" fill="#4D4F59"/>
</svg>
