<svg width="67" height="20" viewBox="0 0 67 20" fill="none" xmlns="http://www.w3.org/2000/svg">
<rect x="0.5" y="0.5" width="66" height="19" rx="7.5" stroke="#C1C1C1"/>
<g clip-path="url(#clip0_226_17)">
<g clip-path="url(#clip1_226_17)">
<rect x="6" y="4" width="12" height="12" rx="6" fill="#30E3CA"/>
<path d="M12 17C8.15 17 5 13.85 5 10C5 6.15 8.15 3 12 3C15.85 3 19 6.15 19 10C19 13.85 15.85 17 12 17ZM12 4.16667C8.79167 4.16667 6.16667 6.79167 6.16667 10C6.16667 13.2083 8.79167 15.8333 12 15.8333C15.2083 15.8333 17.8333 13.2083 17.8333 10C17.8333 6.79167 15.2083 4.16667 12 4.16667Z" fill="black"/>
<path d="M11.4167 12.3333C11.2417 12.3333 11.125 12.275 11.0084 12.1583L9.25837 10.4083C9.02504 10.175 9.02504 9.82499 9.25837 9.59166C9.49171 9.35832 9.84171 9.35832 10.075 9.59166L11.825 11.3417C12.0584 11.575 12.0584 11.925 11.825 12.1583C11.7084 12.275 11.5917 12.3333 11.4167 12.3333Z" fill="black"/>
<path d="M11.4167 12.3333C11.2417 12.3333 11.125 12.275 11.0084 12.1583C10.775 11.925 10.775 11.575 11.0084 11.3417L14.5084 7.84166C14.7417 7.60832 15.0917 7.60832 15.325 7.84166C15.5584 8.07499 15.5584 8.42499 15.325 8.65832L11.825 12.1583C11.7084 12.275 11.5917 12.3333 11.4167 12.3333Z" fill="black"/>
</g>
</g>
<defs>
<clipPath id="clip0_226_17">
<rect width="14" height="14" fill="white" transform="translate(5 3)"/>
</clipPath>
<clipPath id="clip1_226_17">
<rect width="14" height="14" fill="white" transform="translate(5 3)"/>
</clipPath>
</defs>
</svg>
