<svg width="67" height="20" viewBox="0 0 67 20" fill="none" xmlns="http://www.w3.org/2000/svg">
<path fill-rule="evenodd" clip-rule="evenodd" d="M8 0C3.58172 0 0 3.58172 0 8V12C0 16.4183 3.58172 20 8 20H42.4396C43.335 20 44.1961 19.8529 45 19.5815C41.8375 18.5138 39.5604 15.5228 39.5604 12V8C39.5604 4.47718 41.8375 1.48619 45 0.418514C44.1961 0.147122 43.335 0 42.4396 0H8Z" fill="#FF6264"/>
<rect x="6" y="4" width="12" height="12" rx="6" fill="#FF6264"/>
<g clip-path="url(#clip0_225_13)">
<path d="M12 17C8.15 17 5 13.85 5 10C5 6.15 8.15 3 12 3C15.85 3 19 6.15 19 10C19 13.85 15.85 17 12 17ZM12 4.16667C8.79167 4.16667 6.16667 6.79167 6.16667 10C6.16667 13.2083 8.79167 15.8333 12 15.8333C15.2083 15.8333 17.8333 13.2083 17.8333 10C17.8333 6.79167 15.2083 4.16667 12 4.16667Z" fill="black"/>
<path d="M9.66659 12.9166C9.49159 12.9166 9.37492 12.8583 9.25825 12.7416C9.02492 12.5083 9.02492 12.1583 9.25825 11.925L13.9249 7.25831C14.1583 7.02498 14.5083 7.02498 14.7416 7.25831C14.9749 7.49165 14.9749 7.84165 14.7416 8.07498L10.0749 12.7416C9.95825 12.8583 9.84159 12.9166 9.66659 12.9166Z" fill="black"/>
<path d="M14.3333 12.9166C14.1583 12.9166 14.0416 12.8583 13.9249 12.7416L9.25825 8.07498C9.02492 7.84165 9.02492 7.49165 9.25825 7.25831C9.49159 7.02498 9.84158 7.02498 10.0749 7.25831L14.7416 11.925C14.9749 12.1583 14.9749 12.5083 14.7416 12.7416C14.6249 12.8583 14.5083 12.9166 14.3333 12.9166Z" fill="black"/>
</g>
<rect x="0.5" y="0.5" width="66" height="19" rx="7.5" stroke="#C1C1C1"/>
<defs>
<clipPath id="clip0_225_13">
<rect width="14" height="14" fill="white" transform="translate(5 3)"/>
</clipPath>
</defs>
</svg>
