<svg width="13" height="14" viewBox="0 0 13 14" fill="none" xmlns="http://www.w3.org/2000/svg">
<path d="M3.18164 8.27272C3.18164 7.92125 3.46655 7.63635 3.818 7.63635C4.16946 7.63635 4.45437 7.92125 4.45437 8.27272C4.45437 8.62418 4.16946 8.90908 3.818 8.90908C3.46655 8.90908 3.18164 8.62418 3.18164 8.27272Z" fill="#0F0F0F"/>
<path d="M3.818 10.1818C3.46655 10.1818 3.18164 10.4667 3.18164 10.8182C3.18164 11.1697 3.46655 11.4546 3.818 11.4546C4.16946 11.4546 4.45437 11.1697 4.45437 10.8182C4.45437 10.4667 4.16946 10.1818 3.818 10.1818Z" fill="#0F0F0F"/>
<path d="M5.72729 8.27272C5.72729 7.92125 6.01219 7.63635 6.36366 7.63635C6.71512 7.63635 7.00002 7.92125 7.00002 8.27272C7.00002 8.62418 6.71512 8.90908 6.36366 8.90908C6.01219 8.90908 5.72729 8.62418 5.72729 8.27272Z" fill="#0F0F0F"/>
<path d="M6.36366 10.1818C6.01219 10.1818 5.72729 10.4667 5.72729 10.8182C5.72729 11.1697 6.01219 11.4546 6.36366 11.4546C6.71512 11.4546 7.00002 11.1697 7.00002 10.8182C7.00002 10.4667 6.71512 10.1818 6.36366 10.1818Z" fill="#0F0F0F"/>
<path d="M8.27271 8.27272C8.27271 7.92125 8.55761 7.63635 8.90907 7.63635C9.26053 7.63635 9.54543 7.92125 9.54543 8.27272C9.54543 8.62418 9.26053 8.90908 8.90907 8.90908C8.55761 8.90908 8.27271 8.62418 8.27271 8.27272Z" fill="#0F0F0F"/>
<path d="M8.90907 10.1818C8.55761 10.1818 8.27271 10.4667 8.27271 10.8182C8.27271 11.1697 8.55761 11.4546 8.90907 11.4546C9.26053 11.4546 9.54543 11.1697 9.54543 10.8182C9.54543 10.4667 9.26053 10.1818 8.90907 10.1818Z" fill="#0F0F0F"/>
<path fill-rule="evenodd" clip-rule="evenodd" d="M2.54545 0.636364C2.54545 0.284913 2.83037 0 3.18182 0C3.53327 0 3.81818 0.284913 3.81818 0.636364V1.27273H8.90909V0.636364C8.90909 0.284913 9.19399 0 9.54545 0C9.89692 0 10.1818 0.284913 10.1818 0.636364V1.27273H10.8182C11.8726 1.27273 12.7273 2.12746 12.7273 3.18182V12.0909C12.7273 13.1453 11.8726 14 10.8182 14H1.90909C0.854732 14 0 13.1453 0 12.0909V3.18182C0 2.12746 0.854732 1.27273 1.90909 1.27273H2.54545V0.636364ZM8.90909 2.54545V3.18182C8.90909 3.53327 9.19399 3.81818 9.54545 3.81818C9.89692 3.81818 10.1818 3.53327 10.1818 3.18182V2.54545H10.8182C11.1696 2.54545 11.4545 2.83037 11.4545 3.18182V5.09091H1.27273V3.18182C1.27273 2.83037 1.55764 2.54545 1.90909 2.54545H2.54545V3.18182C2.54545 3.53327 2.83037 3.81818 3.18182 3.81818C3.53327 3.81818 3.81818 3.53327 3.81818 3.18182V2.54545H8.90909ZM1.27273 6.36364V12.0909C1.27273 12.4424 1.55764 12.7273 1.90909 12.7273H10.8182C11.1696 12.7273 11.4545 12.4424 11.4545 12.0909V6.36364H1.27273Z" fill="#0F0F0F"/>
</svg>
