<svg width="24" height="24" viewBox="0 0 24 24" fill="none" xmlns="http://www.w3.org/2000/svg">
<circle cx="12" cy="12" r="12" fill="white"/>
<path d="M17.5008 13.9457C17.3125 13.7596 17.1631 13.5383 17.0615 13.2946C16.9598 13.0509 16.9078 12.7895 16.9085 12.5257V10.874C16.9085 9.58132 16.3913 8.34161 15.4707 7.42756C14.5502 6.51351 13.3016 6 11.9997 6C10.6978 6 9.44928 6.51351 8.52871 7.42756C7.60814 8.34161 7.09097 9.58132 7.09097 10.874V12.5257C7.09166 12.7895 7.03967 13.0509 6.938 13.2946C6.83633 13.5383 6.687 13.7596 6.49864 13.9457C6.26055 14.1821 6.09841 14.4832 6.03272 14.8111C5.96702 15.139 6.00073 15.4788 6.12958 15.7877C6.25843 16.0966 6.47664 16.3605 6.75659 16.5463C7.03655 16.732 7.36569 16.8311 7.70238 16.8311H9.32718C9.45236 17.4432 9.78682 17.9935 10.2739 18.3888C10.7609 18.7841 11.3707 19 11.9997 19C12.6288 19 13.2385 18.7841 13.7256 18.3888C14.2126 17.9935 14.5471 17.4432 14.6723 16.8311H16.2976C16.6343 16.8311 16.9634 16.732 17.2434 16.5463C17.5234 16.3605 17.7416 16.0966 17.8704 15.7877C17.9993 15.4788 18.033 15.139 17.9673 14.8111C17.9016 14.4832 17.7389 14.1821 17.5008 13.9457ZM11.9997 17.9142C11.6625 17.9128 11.334 17.808 11.059 17.6141C10.7841 17.4202 10.5762 17.1467 10.4638 16.8311H13.5356C13.4232 17.1467 13.2153 17.4202 12.9404 17.6141C12.6655 17.808 12.3369 17.9128 11.9997 17.9142ZM16.2971 15.748H7.70238C7.5814 15.748 7.46312 15.7125 7.36251 15.6458C7.26189 15.5791 7.18347 15.4842 7.13716 15.3733C7.09086 15.2623 7.07875 15.1402 7.10237 15.0223C7.12599 14.9045 7.18428 14.7963 7.26986 14.7114C7.55983 14.425 7.78974 14.0844 7.94627 13.7092C8.1028 13.3341 8.18285 12.9318 8.1818 12.5257V10.874C8.1818 9.86858 8.58405 8.90436 9.30005 8.19343C10.016 7.4825 10.9872 7.08311 11.9997 7.08311C13.0123 7.08311 13.9834 7.4825 14.6994 8.19343C15.4154 8.90436 15.8177 9.86858 15.8177 10.874V12.5257C15.8166 12.9318 15.8967 13.3341 16.0532 13.7092C16.2097 14.0844 16.4396 14.425 16.7296 14.7114C16.8152 14.7963 16.8735 14.9045 16.8971 15.0223C16.9207 15.1402 16.9086 15.2623 16.8623 15.3733C16.816 15.4842 16.7376 15.5791 16.6369 15.6458C16.5363 15.7125 16.4181 15.748 16.2971 15.748Z" fill="black"/>
</svg>
