<svg width="319" height="34" viewBox="0 0 319 34" fill="none" xmlns="http://www.w3.org/2000/svg">
<rect width="319" height="34" rx="17" fill="white"/>
<path d="M29.7309 25.3109L26.0209 21.6309C27.461 19.8353 28.1584 17.5562 27.9697 15.2622C27.781 12.9682 26.7206 10.8337 25.0064 9.29754C23.2923 7.76141 21.0547 6.94041 18.7538 7.00337C16.4529 7.06633 14.2636 8.00846 12.636 9.63604C11.0085 11.2636 10.0663 13.4529 10.0034 15.7538C9.94041 18.0547 10.7614 20.2923 12.2975 22.0064C13.8337 23.7206 15.9682 24.781 18.2622 24.9697C20.5562 25.1584 22.8353 24.461 24.6309 23.0209L28.3109 26.7009C28.4039 26.7946 28.5145 26.869 28.6363 26.9198C28.7582 26.9706 28.8889 26.9967 29.0209 26.9967C29.1529 26.9967 29.2836 26.9706 29.4055 26.9198C29.5273 26.869 29.6379 26.7946 29.7309 26.7009C29.9111 26.5144 30.0119 26.2652 30.0119 26.0059C30.0119 25.7466 29.9111 25.4974 29.7309 25.3109ZM19.0209 23.0209C17.6364 23.0209 16.2831 22.6104 15.1319 21.8412C13.9808 21.072 13.0836 19.9788 12.5537 18.6997C12.0239 17.4206 11.8853 16.0131 12.1554 14.6553C12.4255 13.2974 13.0922 12.0501 14.0712 11.0712C15.0501 10.0922 16.2974 9.4255 17.6553 9.1554C19.0131 8.88531 20.4206 9.02393 21.6997 9.55374C22.9788 10.0836 24.072 10.9808 24.8412 12.1319C25.6104 13.2831 26.0209 14.6364 26.0209 16.0209C26.0209 17.8774 25.2834 19.6579 23.9706 20.9706C22.6579 22.2834 20.8774 23.0209 19.0209 23.0209Z" fill="black"/>
</svg>
