<svg width="211" height="133" viewBox="0 0 211 133" fill="none" xmlns="http://www.w3.org/2000/svg">
<mask id="path-1-inside-1_17_33" fill="white">
<path d="M0 20C0 8.95431 8.9543 0 20 0H114C125.046 0 134 8.95431 134 20V40H0V20Z"/>
</mask>
<path d="M0 20C0 8.95431 8.9543 0 20 0H114C125.046 0 134 8.95431 134 20V40H0V20Z" fill="#EAEAEA"/>
<path d="M-1 20C-1 8.40202 8.40202 -1 20 -1H114C125.598 -1 135 8.40202 135 20H133C133 9.50659 124.493 1 114 1H20C9.50659 1 1 9.50659 1 20H-1ZM134 40H0H134ZM-1 40V20C-1 8.40202 8.40202 -1 20 -1V1C9.50659 1 1 9.50659 1 20V40H-1ZM114 -1C125.598 -1 135 8.40202 135 20V40H133V20C133 9.50659 124.493 1 114 1V-1Z" fill="black" mask="url(#path-1-inside-1_17_33)"/>
<path d="M0.5 40.5H191C201.77 40.5 210.5 49.2304 210.5 60V113C210.5 123.77 201.77 132.5 191 132.5H20C9.23044 132.5 0.5 123.77 0.5 113V40.5Z" fill="white" stroke="black"/>
</svg>
